<svg width="335" height="105" viewBox="0 0 335 105" fill="none" xmlns="http://www.w3.org/2000/svg">
<g clip-path="url(#clip0_0_820)">
<rect width="335" height="105" rx="10" fill="#770FDF"/>
<g clip-path="url(#clip1_0_820)">
<path d="M291.45 76.6089C269.289 79.7497 253.876 86.0314 243.057 68.5393C232.238 51.0472 237.38 28.3968 254.571 17.9353C271.762 7.47384 287.503 17.5125 302.818 31.2598C323.725 50.0083 311.541 73.8546 291.45 76.6089Z" fill="#0FDF8F"/>
</g>
<g clip-path="url(#clip2_0_820)">
<path d="M295.254 55.2467C294.957 56.4168 294.569 57.5624 294.094 58.6731C293.229 60.6907 292.077 62.5751 290.673 64.2689C285.112 70.9832 275.954 74.3016 266.894 72.0341C254.39 68.9047 246.81 56.3131 249.966 43.9125C251.387 38.3301 254.742 33.7378 259.142 30.6601C260.926 29.4117 262.877 28.4166 264.938 27.7035C269.105 26.2627 273.729 25.9747 278.324 27.1248C284.289 28.6176 289.132 32.2604 292.224 37.0078C294.905 41.1221 296.27 46.0655 295.915 51.1572C295.817 52.5371 295.596 53.9056 295.254 55.2467Z" fill="white"/>
<path d="M290.673 64.2689C285.112 70.9832 275.954 74.3016 266.894 72.0341C254.39 68.9047 246.81 56.313 249.966 43.9125C251.387 38.3301 254.742 33.7378 259.142 30.6601C259.101 30.7509 259.057 30.8405 259.011 30.929C258.121 32.627 256.437 33.8276 255.672 35.5842C255.126 36.8354 255.098 38.2558 254.612 39.5303C253.956 41.2448 252.515 42.5849 251.956 44.3334C250.983 47.3726 252.926 50.5779 252.72 53.759C252.646 54.911 252.297 56.1177 252.732 57.1809C252.947 57.7009 253.33 58.1271 253.706 58.5421C255.58 60.6097 257.454 62.6787 259.328 64.7466C260.666 66.2233 262.232 67.8102 264.224 67.8575C265.077 67.8779 265.942 67.6036 266.773 67.79C267.845 68.0296 268.596 68.9625 269.498 69.5879C272.037 71.3517 275.487 70.5634 278.474 69.7095C280.863 69.0269 283.292 68.3258 285.392 66.9795C286.398 66.3354 287.316 65.5497 288.365 64.9801C289.076 64.5926 289.876 64.309 290.673 64.2691V64.2689Z" fill="#0FDF8F"/>
<path d="M272.612 73.002C270.662 73.0021 268.72 72.7628 266.83 72.2896C260.713 70.7586 255.563 66.957 252.329 61.5849C249.095 56.2128 248.165 49.9136 249.709 43.8478C251.658 36.1882 257.319 30.0597 264.851 27.4543C269.211 25.946 273.893 25.7435 278.39 26.869C284.204 28.3242 289.196 31.8739 292.447 36.8642C295.204 41.0962 296.529 46.1785 296.179 51.1749C296.081 52.5705 295.858 53.9546 295.512 55.3109C295.211 56.494 294.818 57.6523 294.338 58.7755C292.157 63.8582 288.199 68.0288 283.193 70.5191C279.909 72.1523 276.286 73.0024 272.612 73.0018L272.612 73.002ZM272.591 26.6792C270.015 26.6794 267.458 27.1097 265.026 27.9521C257.663 30.499 252.13 36.4896 250.224 43.9769C248.715 49.9061 249.625 56.0634 252.786 61.3146C255.947 66.5658 260.98 70.2819 266.96 71.7783C278.064 74.5572 289.372 69.002 293.849 58.5694C294.319 57.4712 294.702 56.3388 294.997 55.182C295.335 53.856 295.553 52.5029 295.649 51.1385C295.991 46.2549 294.695 41.2872 292 37.1504C288.823 32.2724 283.943 28.8027 278.26 27.3803C276.407 26.9155 274.503 26.68 272.591 26.6792H272.591Z" fill="#160229"/>
<path d="M292.224 37.0073L274.574 48.3201L272.61 49.5794L271.842 47.3875L264.939 27.7032C269.105 26.262 273.728 25.9742 278.325 27.1247C284.288 28.6172 289.132 32.2598 292.224 37.0073Z" fill="#0FDF8F"/>
<path d="M272.61 49.843C272.555 49.843 272.501 49.8259 272.456 49.7942C272.411 49.7624 272.377 49.7175 272.359 49.6658L271.591 47.474L264.688 27.7898C264.665 27.7238 264.669 27.6514 264.7 27.5885C264.73 27.5256 264.785 27.4774 264.851 27.4543C269.211 25.9459 273.893 25.7435 278.39 26.869C284.205 28.3241 289.197 31.8739 292.447 36.8642C292.485 36.9229 292.499 36.9943 292.484 37.0626C292.469 37.1309 292.427 37.1907 292.368 37.2286L272.754 49.8006C272.711 49.8286 272.661 49.8428 272.61 49.8428V49.843ZM265.278 27.8668L272.75 49.1756L291.855 36.9298C288.675 32.1678 283.858 28.7811 278.26 27.3803C273.95 26.3017 269.467 26.4707 265.278 27.8668Z" fill="#160229"/>
<path d="M295.914 51.1567L274.946 49.737L272.61 49.5793L274.574 48.32L292.224 37.0073C294.904 41.1216 296.271 46.0653 295.914 51.1567Z" fill="#160229"/>
<path d="M295.915 51.4203C295.908 51.4203 295.902 51.4201 295.896 51.4196L272.592 49.8423C272.536 49.8384 272.483 49.8173 272.44 49.782C272.397 49.7466 272.367 49.6987 272.353 49.6452C272.339 49.5916 272.342 49.5351 272.362 49.4835C272.383 49.4319 272.419 49.388 272.466 49.3579L292.079 36.7859C292.139 36.748 292.211 36.735 292.28 36.7496C292.349 36.7643 292.409 36.8055 292.447 36.8641C295.204 41.0961 296.53 46.1784 296.18 51.1749C296.175 51.2414 296.145 51.3037 296.096 51.3492C296.047 51.3947 295.982 51.4201 295.915 51.4202L295.915 51.4203ZM273.426 49.3701L295.666 50.8757C295.939 46.1642 294.694 41.3898 292.143 37.3727L273.426 49.3701Z" fill="#160229"/>
<path d="M295.254 55.2466C294.957 56.4166 294.569 57.562 294.093 58.6726L274.763 50.4907L272.61 49.5792L274.946 49.7369L295.914 51.1566C295.818 52.5366 295.597 53.9053 295.255 55.2465L295.254 55.2466Z" fill="#E6E6E6"/>
<path d="M294.093 58.9362C294.058 58.9362 294.022 58.9291 293.989 58.915L272.506 49.8217C272.448 49.7973 272.401 49.7534 272.372 49.6977C272.344 49.642 272.337 49.5783 272.351 49.5177C272.366 49.4571 272.402 49.4037 272.453 49.3668C272.503 49.3299 272.565 49.312 272.628 49.3163L295.933 50.8936C296.003 50.8984 296.068 50.9308 296.115 50.9835C296.161 51.0362 296.184 51.105 296.18 51.1748C296.081 52.5704 295.858 53.9545 295.512 55.3109C295.211 56.494 294.819 57.6523 294.338 58.7755C294.318 58.8231 294.283 58.8637 294.24 58.8923C294.196 58.9208 294.145 58.936 294.093 58.936V58.9362ZM274.158 49.948L293.951 58.3258C294.375 57.3038 294.724 56.2533 294.997 55.182C295.313 53.9414 295.524 52.6769 295.629 51.4016L274.158 49.948H274.158Z" fill="#160229"/>
</g>
<g clip-path="url(#clip3_0_820)">
<path d="M283.246 58.4979H267.451V55.1384C267.451 54.7989 267.315 54.4734 267.073 54.2334C266.831 53.9934 266.503 53.8586 266.161 53.8585H256.813C256.471 53.8585 256.143 53.9934 255.902 54.2334C255.66 54.4734 255.524 54.7989 255.524 55.1384V58.4979H239.729C239.173 58.4979 238.64 58.717 238.247 59.1071C237.855 59.4971 237.634 60.0261 237.634 60.5777V90.0139C237.634 90.287 237.688 90.5574 237.793 90.8098C237.898 91.0621 238.053 91.2914 238.247 91.4845C238.442 91.6776 238.673 91.8308 238.927 91.9353C239.181 92.0398 239.454 92.0936 239.729 92.0936H283.246C283.801 92.0936 284.334 91.8745 284.727 91.4844C285.12 91.0944 285.341 90.5654 285.341 90.0139V60.5777C285.341 60.0261 285.12 59.4971 284.727 59.1071C284.334 58.717 283.801 58.4979 283.246 58.4979ZM257.458 56.4182C257.458 56.2061 257.543 56.0027 257.694 55.8527C257.845 55.7027 258.05 55.6184 258.264 55.6183H264.711C264.924 55.6184 265.129 55.7027 265.281 55.8527C265.432 56.0027 265.517 56.2061 265.517 56.4182V58.4979H257.458V56.4182Z" fill="#0FDF8F"/>
<path d="M285.26 89.2939C284.616 90.2538 279.136 90.7338 265.92 90.7338C252.703 90.7338 244.161 89.9339 244.161 89.9339C244.161 89.9862 244.15 90.0481 244.141 90.0287C243.324 90.5138 242.364 90.7061 241.421 90.5738C239.768 90.9473 237.644 89.7363 237.644 89.7363C237.654 91.0585 239.245 92.0936 239.245 92.0936L246.095 92.0917C246.095 92.0917 280.909 92.1736 283.105 92.0936C285.301 92.0136 285.26 89.2939 285.26 89.2939Z" fill="#160229"/>
<path d="M283.165 58.4979C281.553 58.4179 246.821 58.4979 246.821 58.4979C246.426 58.5585 246.027 58.5827 245.628 58.5699C243.339 58.5859 239.487 58.5779 239.487 58.5779C239 58.6489 238.548 58.874 238.2 59.2198C237.851 59.5656 237.625 60.0138 237.553 60.4977C237.553 60.4977 240.329 59.6421 241.52 60.3098C241.52 60.3098 243.194 59.911 244.081 60.9242C249.874 60.1092 255.717 59.6994 261.568 59.6978C271.238 59.6978 281.876 59.4845 285.341 60.7909C285.341 59.8845 284.777 58.5779 283.165 58.4979ZM267.37 55.8583C267.37 55.8583 267.048 54.7384 265.114 54.7384H257.7C255.766 54.7384 255.443 55.8583 255.443 55.8583C255.443 55.8583 254.879 53.8585 257.015 53.8585H265.92C265.92 53.8585 267.531 53.6185 267.37 55.8583Z" fill="white"/>
<path d="M283.246 58.258H267.692V55.1384C267.692 54.7354 267.53 54.3492 267.243 54.0643C266.956 53.7794 266.567 53.6191 266.161 53.6186H256.813C256.407 53.619 256.018 53.7792 255.731 54.0642C255.444 54.3491 255.283 54.7354 255.282 55.1384V58.258H239.729C239.109 58.2587 238.515 58.5033 238.077 58.9382C237.639 59.3731 237.393 59.9627 237.392 60.5777V90.0139C237.393 90.6289 237.639 91.2185 238.077 91.6533C238.515 92.0882 239.109 92.3328 239.729 92.3336H283.246C283.865 92.3329 284.459 92.0883 284.897 91.6534C285.336 91.2185 285.582 90.6289 285.583 90.0139V60.5777C285.582 59.9626 285.336 59.373 284.897 58.9381C284.459 58.5033 283.865 58.2586 283.246 58.258ZM255.766 55.1384C255.766 54.8627 255.877 54.5985 256.073 54.4035C256.269 54.2086 256.536 54.0989 256.813 54.0985H266.161C266.439 54.0989 266.705 54.2086 266.902 54.4035C267.098 54.5985 267.209 54.8627 267.209 55.1384V58.258H265.758V56.4182C265.758 56.1425 265.647 55.8783 265.451 55.6834C265.255 55.4884 264.989 55.3788 264.711 55.3783H258.264C257.986 55.3788 257.72 55.4884 257.524 55.6834C257.327 55.8783 257.217 56.1425 257.216 56.4182V58.258H255.766V55.1384ZM265.275 58.258H257.7V56.4182C257.7 56.2697 257.759 56.1273 257.865 56.0223C257.971 55.9173 258.114 55.8583 258.264 55.8583H264.711C264.86 55.8584 265.004 55.9174 265.11 56.0224C265.215 56.1274 265.275 56.2697 265.275 56.4182V58.258ZM239.729 91.8536C239.238 91.8532 238.766 91.6592 238.419 91.3143C238.071 90.9694 237.876 90.5017 237.876 90.0139V60.5777C237.876 60.0899 238.072 59.6223 238.419 59.2774C238.766 58.9325 239.238 58.7385 239.729 58.7379H242.179C241.893 58.9537 241.662 59.232 241.503 59.5511C241.343 59.8702 241.26 60.2215 241.26 60.5777V90.0139C241.26 90.37 241.343 90.7213 241.503 91.0404C241.662 91.3594 241.893 91.6377 242.179 91.8536H239.729ZM243.597 91.8536C243.106 91.8532 242.635 91.6592 242.287 91.3143C241.94 90.9694 241.744 90.5017 241.744 90.0139V60.5777C241.744 60.0899 241.94 59.6222 242.287 59.2773C242.635 58.9324 243.106 58.7384 243.597 58.7379H244.758C244.472 58.9537 244.241 59.232 244.082 59.5511C243.922 59.8702 243.839 60.2215 243.839 60.5777V90.0139C243.839 90.37 243.922 90.7213 244.082 91.0404C244.241 91.3594 244.472 91.6377 244.758 91.8536H243.597ZM285.099 90.0139C285.099 90.5017 284.903 90.9694 284.556 91.3143C284.208 91.6592 283.737 91.8532 283.246 91.8536H246.176C245.684 91.8532 245.213 91.6592 244.866 91.3143C244.518 90.9694 244.323 90.5017 244.322 90.0139V60.5777C244.323 60.0899 244.518 59.6223 244.866 59.2774C245.213 58.9325 245.685 58.7385 246.176 58.7379H283.246C283.737 58.7385 284.208 58.9325 284.556 59.2774C284.903 59.6223 285.099 60.0899 285.099 60.5777V90.0139Z" fill="#160229"/>
</g>
<g clip-path="url(#clip4_0_820)">
<path d="M318.15 86.3949V91.209C318.15 91.7012 313.118 92.0999 306.91 92.0999C306.41 92.0999 305.917 92.0975 305.434 92.0927C299.925 92.0352 295.672 91.6616 295.672 91.2089V86.3947H318.15V86.3949Z" fill="#0FDF8F"/>
<path d="M306.91 92.3336C306.409 92.3336 305.916 92.3311 305.431 92.3263C302.745 92.2983 300.271 92.1936 298.466 92.0317C297.568 91.9512 296.865 91.8593 296.375 91.7587C295.795 91.6396 295.436 91.5061 295.436 91.2089V86.3948C295.436 86.3329 295.461 86.2735 295.505 86.2296C295.549 86.1858 295.609 86.1612 295.672 86.1612H318.15C318.212 86.1612 318.272 86.1858 318.316 86.2296C318.361 86.2735 318.385 86.3329 318.385 86.3948V91.2089C318.385 91.5211 317.974 91.6609 317.31 91.7854C316.736 91.893 315.917 91.9894 314.876 92.0719C312.748 92.2406 309.919 92.3336 306.91 92.3336H306.91ZM295.908 91.1391C296.362 91.4094 299.518 91.7973 305.436 91.859C305.919 91.8638 306.41 91.8663 306.91 91.8663C313.399 91.8663 317.392 91.4518 317.914 91.1391V86.6285H295.908V91.1391H295.908Z" fill="#160229"/>
<path d="M306.911 87.2848C313.118 87.2848 318.149 86.8864 318.149 86.3949C318.149 85.9033 313.118 85.5049 306.911 85.5049C300.704 85.5049 295.672 85.9033 295.672 86.3949C295.672 86.8864 300.704 87.2848 306.911 87.2848Z" fill="#160229"/>
<path d="M306.911 87.5184C303.903 87.5184 301.074 87.4255 298.945 87.257C297.904 87.1747 297.086 87.0784 296.511 86.9709C295.848 86.8466 295.436 86.7069 295.436 86.3949C295.436 86.0828 295.848 85.9432 296.511 85.8188C297.086 85.7113 297.905 85.6151 298.945 85.5327C301.074 85.3641 303.903 85.2712 306.911 85.2712C309.919 85.2712 312.748 85.3641 314.876 85.5327C315.917 85.6151 316.736 85.7113 317.31 85.8188C317.974 85.9431 318.385 86.0828 318.385 86.3949C318.385 86.7069 317.974 86.8465 317.31 86.9709C316.736 87.0784 315.917 87.1747 314.876 87.257C312.748 87.4255 309.919 87.5184 306.911 87.5184ZM296.078 86.3949C297.027 86.6955 300.897 87.0511 306.911 87.0511C312.924 87.0511 316.795 86.6955 317.744 86.3949C316.795 86.0943 312.924 85.7385 306.911 85.7385C300.897 85.7385 297.027 86.0943 296.078 86.3949Z" fill="#160229"/>
<path d="M300.913 92.0965C300.85 92.0965 300.79 92.0719 300.746 92.0281C300.702 91.9843 300.677 91.9249 300.677 91.8629V87.1532C300.677 87.0912 300.702 87.0318 300.746 86.988C300.79 86.9441 300.85 86.9195 300.913 86.9195C300.975 86.9195 301.035 86.9441 301.08 86.988C301.124 87.0318 301.149 87.0912 301.149 87.1532V91.8629C301.149 91.9249 301.124 91.9843 301.08 92.0281C301.035 92.0719 300.975 92.0965 300.913 92.0965ZM306.911 92.3332C306.848 92.3332 306.788 92.3086 306.744 92.2648C306.7 92.221 306.675 92.1616 306.675 92.0996V87.2847C306.675 87.2227 306.7 87.1633 306.744 87.1195C306.788 87.0757 306.848 87.0511 306.911 87.0511C306.973 87.0511 307.033 87.0757 307.078 87.1195C307.122 87.1633 307.147 87.2227 307.147 87.2847V92.0996C307.147 92.1616 307.122 92.221 307.078 92.2648C307.033 92.3086 306.973 92.3332 306.911 92.3332ZM312.909 92.0497C312.846 92.0497 312.786 92.0251 312.742 91.9813C312.697 91.9374 312.673 91.878 312.673 91.816V87.1531C312.673 87.0911 312.697 87.0317 312.742 86.9878C312.786 86.944 312.846 86.9194 312.909 86.9194C312.971 86.9194 313.031 86.944 313.075 86.9878C313.12 87.0317 313.145 87.0911 313.145 87.1531V91.816C313.145 91.878 313.12 91.9374 313.075 91.9813C313.031 92.0251 312.971 92.0497 312.909 92.0497Z" fill="#160229"/>
<path d="M315.126 81.5795V86.3949C315.126 86.8452 310.891 87.2175 305.399 87.2763C304.904 87.2823 304.4 87.2847 303.887 87.2847C303.742 87.2847 303.598 87.2847 303.455 87.2836C302.579 87.2811 301.726 87.2704 300.912 87.2536C298.877 87.2094 297.072 87.1207 295.672 87.001C293.797 86.8429 292.649 86.6298 292.649 86.395V81.5796H315.127L315.126 81.5795Z" fill="#0FDF8F"/>
<path d="M303.887 87.5183C303.741 87.5183 303.597 87.5183 303.453 87.5171C302.616 87.5146 301.758 87.5046 300.907 87.4871C298.895 87.4433 297.078 87.3556 295.652 87.2334C294.692 87.1527 293.938 87.0591 293.411 86.9556C292.795 86.8346 292.413 86.6986 292.413 86.3947V81.5793C292.413 81.5173 292.438 81.4579 292.482 81.4141C292.526 81.3703 292.586 81.3456 292.649 81.3456H315.126C315.189 81.3456 315.249 81.3703 315.293 81.4141C315.337 81.4579 315.362 81.5173 315.362 81.5793V86.3947C315.362 86.6912 315.004 86.8244 314.427 86.9429C313.939 87.043 313.238 87.1347 312.343 87.215C310.545 87.3764 308.08 87.481 305.401 87.5096C304.936 87.5153 304.44 87.518 303.887 87.518L303.887 87.5183ZM292.885 86.3228C293.01 86.3901 293.547 86.5873 295.692 86.768C297.109 86.8893 298.916 86.9764 300.917 87.02C301.766 87.0374 302.62 87.0474 303.456 87.0499C303.599 87.0511 303.743 87.0511 303.887 87.0511C304.439 87.0511 304.932 87.0484 305.396 87.0427C311.292 86.9797 314.437 86.5935 314.891 86.3248V81.8132H292.885V86.3229V86.3228Z" fill="#160229"/>
<path d="M303.887 82.4701C310.094 82.4701 315.126 82.0716 315.126 81.5801C315.126 81.0886 310.094 80.6901 303.887 80.6901C297.68 80.6901 292.649 81.0886 292.649 81.5801C292.649 82.0716 297.68 82.4701 303.887 82.4701Z" fill="#160229"/>
<path d="M303.887 82.7036C300.879 82.7036 298.05 82.6108 295.922 82.4423C294.881 82.3599 294.062 82.2637 293.488 82.1562C292.824 82.0319 292.413 81.8922 292.413 81.5801C292.413 81.2681 292.824 81.1283 293.488 81.004C294.062 80.8964 294.881 80.8002 295.922 80.7178C298.05 80.5494 300.879 80.4565 303.887 80.4565C306.896 80.4565 309.725 80.5494 311.853 80.7178C312.894 80.8002 313.713 80.8964 314.287 81.004C314.951 81.1282 315.362 81.2681 315.362 81.5801C315.362 81.8922 314.951 82.0318 314.287 82.1562C313.713 82.2637 312.894 82.3599 311.853 82.4423C309.725 82.6108 306.896 82.7036 303.888 82.7036H303.887ZM293.054 81.5801C294.003 81.8807 297.874 82.2363 303.887 82.2363C309.901 82.2363 313.771 81.8807 314.721 81.5801C313.771 81.2795 309.901 80.9238 303.887 80.9238C297.874 80.9238 294.003 81.2795 293.054 81.5801Z" fill="#160229"/>
<path d="M297.889 87.2818C297.827 87.2818 297.767 87.2572 297.723 87.2134C297.678 87.1695 297.654 87.1101 297.654 87.0481V82.3384C297.654 82.2764 297.678 82.217 297.723 82.1732C297.767 82.1294 297.827 82.1048 297.889 82.1048C297.952 82.1048 298.012 82.1294 298.056 82.1732C298.101 82.217 298.125 82.2764 298.125 82.3384V87.0481C298.125 87.1101 298.101 87.1695 298.056 87.2134C298.012 87.2572 297.952 87.2818 297.889 87.2818ZM303.887 87.5184C303.825 87.5184 303.765 87.4937 303.721 87.4499C303.676 87.4061 303.651 87.3467 303.651 87.2847V82.47C303.651 82.408 303.676 82.3486 303.721 82.3047C303.765 82.2609 303.825 82.2363 303.887 82.2363C303.95 82.2363 304.01 82.2609 304.054 82.3047C304.098 82.3486 304.123 82.408 304.123 82.47V87.2847C304.123 87.3467 304.098 87.4061 304.054 87.4499C304.01 87.4937 303.95 87.5184 303.887 87.5184ZM309.885 87.2348C309.823 87.2348 309.763 87.2102 309.719 87.1664C309.674 87.1226 309.649 87.0631 309.649 87.0012V82.3383C309.649 82.2763 309.674 82.2169 309.719 82.1731C309.763 82.1293 309.823 82.1046 309.885 82.1046C309.948 82.1046 310.008 82.1293 310.052 82.1731C310.096 82.2169 310.121 82.2763 310.121 82.3383V87.0012C310.121 87.0631 310.096 87.1226 310.052 87.1664C310.008 87.2102 309.948 87.2348 309.885 87.2348Z" fill="#160229"/>
<path d="M296.396 76.7652V81.58C296.396 82.0715 301.428 82.47 307.635 82.47C313.842 82.47 318.873 82.0715 318.873 81.58V76.7652H296.396Z" fill="#0FDF8F"/>
<path d="M307.635 82.7036C304.627 82.7036 301.798 82.6107 299.669 82.4422C298.629 82.3598 297.81 82.2635 297.235 82.1561C296.572 82.0318 296.16 81.892 296.16 81.58V76.7652C296.16 76.7033 296.185 76.6438 296.229 76.6C296.273 76.5562 296.333 76.5316 296.396 76.5316H318.873C318.936 76.5316 318.996 76.5562 319.04 76.6C319.085 76.6438 319.109 76.7033 319.109 76.7652V81.58C319.109 81.892 318.698 82.0316 318.034 82.1561C317.46 82.2635 316.641 82.3598 315.6 82.4422C313.472 82.6107 310.643 82.7036 307.635 82.7036ZM296.632 81.5101C297.154 81.8223 301.147 82.2363 307.635 82.2363C314.122 82.2363 318.115 81.8223 318.637 81.5101V76.9989H296.632V81.5101Z" fill="#160229"/>
<path d="M307.635 77.6553C313.842 77.6553 318.874 77.2569 318.874 76.7653C318.874 76.2738 313.842 75.8754 307.635 75.8754C301.428 75.8754 296.396 76.2738 296.396 76.7653C296.396 77.2569 301.428 77.6553 307.635 77.6553Z" fill="#160229"/>
<path d="M307.635 77.8889C304.627 77.8889 301.798 77.796 299.669 77.6274C298.629 77.5451 297.81 77.4488 297.235 77.3413C296.572 77.217 296.16 77.0773 296.16 76.7652C296.16 76.4532 296.572 76.3136 297.235 76.1892C297.81 76.0817 298.628 75.9854 299.669 75.9031C301.798 75.7346 304.627 75.6417 307.635 75.6417C310.643 75.6417 313.472 75.7346 315.6 75.9031C316.641 75.9854 317.46 76.0817 318.034 76.1892C318.698 76.3135 319.109 76.4532 319.109 76.7652C319.109 77.0773 318.698 77.2169 318.034 77.3413C317.46 77.4488 316.641 77.5451 315.6 77.6274C313.472 77.796 310.643 77.8889 307.635 77.8889H307.635ZM296.802 76.7652C297.751 77.0658 301.621 77.4216 307.635 77.4216C313.648 77.4216 317.519 77.0658 318.468 76.7652C317.519 76.4646 313.648 76.109 307.635 76.109C301.621 76.109 297.751 76.4646 296.802 76.7652Z" fill="#160229"/>
<path d="M301.637 82.467C301.574 82.467 301.514 82.4424 301.47 82.3986C301.426 82.3548 301.401 82.2954 301.401 82.2334V77.5237C301.401 77.4617 301.426 77.4023 301.47 77.3584C301.514 77.3146 301.574 77.29 301.637 77.29C301.699 77.29 301.76 77.3146 301.804 77.3584C301.848 77.4023 301.873 77.4617 301.873 77.5237V82.2334C301.873 82.2954 301.848 82.3548 301.804 82.3986C301.76 82.4424 301.699 82.467 301.637 82.467ZM307.635 82.7036C307.572 82.7036 307.512 82.679 307.468 82.6352C307.424 82.5914 307.399 82.5319 307.399 82.47V77.6552C307.399 77.5932 307.424 77.5338 307.468 77.49C307.512 77.4462 307.572 77.4216 307.635 77.4216C307.697 77.4216 307.757 77.4462 307.802 77.49C307.846 77.5338 307.871 77.5932 307.871 77.6552V82.47C307.871 82.5319 307.846 82.5914 307.802 82.6352C307.757 82.679 307.697 82.7036 307.635 82.7036ZM313.633 82.4202C313.57 82.4202 313.51 82.3956 313.466 82.3518C313.422 82.3079 313.397 82.2485 313.397 82.1865V77.5237C313.397 77.4617 313.422 77.4023 313.466 77.3584C313.51 77.3146 313.57 77.29 313.633 77.29C313.695 77.29 313.755 77.3146 313.8 77.3584C313.844 77.4023 313.869 77.4617 313.869 77.5237V82.1865C313.869 82.2485 313.844 82.3079 313.8 82.3518C313.755 82.3956 313.695 82.4202 313.633 82.4202Z" fill="#160229"/>
<path d="M289.1 71.9505V76.7652C289.1 77.2567 294.131 77.6552 300.338 77.6552C306.545 77.6552 311.577 77.2567 311.577 76.7652V71.9505H289.1Z" fill="#0FDF8F"/>
<path d="M300.338 77.8889C297.33 77.8889 294.501 77.796 292.373 77.6274C291.332 77.5451 290.513 77.4488 289.939 77.3413C289.275 77.217 288.864 77.0773 288.864 76.7653V71.9505C288.864 71.8885 288.889 71.8291 288.933 71.7853C288.977 71.7415 289.037 71.7169 289.1 71.7169H311.577C311.64 71.7169 311.7 71.7415 311.744 71.7853C311.788 71.8291 311.813 71.8885 311.813 71.9505V76.7653C311.813 77.0773 311.401 77.2169 310.738 77.3413C310.163 77.4488 309.344 77.5451 308.304 77.6274C306.175 77.796 303.346 77.8889 300.338 77.8889H300.338ZM289.336 76.6954C289.858 77.0076 293.851 77.4216 300.338 77.4216C306.826 77.4216 310.819 77.0076 311.341 76.6954V72.1842H289.336V76.6954Z" fill="#160229"/>
<path d="M300.338 72.8405C306.545 72.8405 311.577 72.442 311.577 71.9505C311.577 71.459 306.545 71.0605 300.338 71.0605C294.131 71.0605 289.1 71.459 289.1 71.9505C289.1 72.442 294.131 72.8405 300.338 72.8405Z" fill="#160229"/>
<path d="M300.338 73.0742C297.33 73.0742 294.501 72.9814 292.373 72.8128C291.332 72.7304 290.513 72.6341 289.939 72.5267C289.275 72.4024 288.864 72.2626 288.864 71.9506C288.864 71.6386 289.275 71.4989 289.939 71.3745C290.513 71.267 291.332 71.1708 292.373 71.0884C294.501 70.9198 297.33 70.827 300.338 70.827C303.346 70.827 306.175 70.9198 308.304 71.0884C309.345 71.1708 310.163 71.267 310.738 71.3745C311.402 71.4988 311.813 71.6386 311.813 71.9506C311.813 72.2626 311.402 72.4022 310.738 72.5267C310.163 72.6341 309.345 72.7304 308.304 72.8128C306.175 72.9814 303.346 73.0742 300.338 73.0742ZM289.505 71.9506C290.454 72.2512 294.325 72.6069 300.338 72.6069C306.352 72.6069 310.222 72.2512 311.172 71.9506C310.222 71.65 306.352 71.2943 300.338 71.2943C294.325 71.2943 290.454 71.65 289.505 71.9506Z" fill="#160229"/>
<path d="M294.34 77.6523C294.278 77.6523 294.218 77.6277 294.174 77.5839C294.129 77.54 294.104 77.4806 294.104 77.4186V72.7088C294.104 72.6468 294.129 72.5874 294.174 72.5436C294.218 72.4998 294.278 72.4752 294.34 72.4752C294.403 72.4752 294.463 72.4998 294.507 72.5436C294.551 72.5874 294.576 72.6468 294.576 72.7088V77.4186C294.576 77.4806 294.551 77.54 294.507 77.5839C294.463 77.6277 294.403 77.6523 294.34 77.6523ZM300.338 77.8889C300.276 77.8889 300.216 77.8643 300.172 77.8204C300.127 77.7766 300.102 77.7172 300.102 77.6552V72.8405C300.102 72.7785 300.127 72.7191 300.172 72.6753C300.216 72.6314 300.276 72.6068 300.338 72.6068C300.401 72.6068 300.461 72.6314 300.505 72.6753C300.549 72.7191 300.574 72.7785 300.574 72.8405V77.6552C300.574 77.7172 300.549 77.7766 300.505 77.8204C300.461 77.8643 300.401 77.8889 300.338 77.8889ZM306.336 77.6055C306.274 77.6055 306.214 77.5808 306.169 77.537C306.125 77.4932 306.1 77.4338 306.1 77.3718V72.7088C306.1 72.6468 306.125 72.5874 306.169 72.5436C306.214 72.4998 306.274 72.4752 306.336 72.4752C306.399 72.4752 306.459 72.4998 306.503 72.5436C306.547 72.5874 306.572 72.6468 306.572 72.7088V77.3718C306.572 77.4338 306.547 77.4932 306.503 77.537C306.459 77.5808 306.399 77.6055 306.336 77.6055Z" fill="#160229"/>
<path d="M292.649 67.1357V71.9505C292.649 72.442 297.68 72.8405 303.887 72.8405C310.094 72.8405 315.126 72.442 315.126 71.9505V67.1357H292.649Z" fill="#0FDF8F"/>
<path d="M303.887 73.0742C300.879 73.0742 298.05 72.9814 295.922 72.8128C294.881 72.7304 294.062 72.6342 293.488 72.5267C292.824 72.4024 292.413 72.2627 292.413 71.9506V67.1358C292.413 67.0738 292.438 67.0144 292.482 66.9705C292.526 66.9267 292.586 66.9021 292.649 66.9021H315.126C315.189 66.9021 315.249 66.9267 315.293 66.9705C315.337 67.0144 315.362 67.0738 315.362 67.1358V71.9506C315.362 72.2627 314.95 72.4023 314.287 72.5267C313.712 72.6342 312.893 72.7304 311.853 72.8128C309.724 72.9814 306.895 73.0742 303.887 73.0742H303.887ZM292.885 71.8808C293.407 72.1929 297.4 72.6069 303.887 72.6069C310.375 72.6069 314.368 72.1929 314.89 71.8808V67.3694H292.885V71.8808H292.885Z" fill="#160229"/>
<path d="M303.887 68.0257C310.094 68.0257 315.126 67.6273 315.126 67.1357C315.126 66.6442 310.094 66.2458 303.887 66.2458C297.68 66.2458 292.649 66.6442 292.649 67.1357C292.649 67.6273 297.68 68.0257 303.887 68.0257Z" fill="#160229"/>
<path d="M303.887 68.2594C300.879 68.2594 298.05 68.1665 295.922 67.998C294.881 67.9157 294.062 67.8194 293.488 67.7119C292.824 67.5876 292.413 67.4479 292.413 67.1359C292.413 66.8238 292.824 66.6842 293.488 66.5598C294.062 66.4523 294.881 66.3561 295.922 66.2737C298.051 66.1051 300.88 66.0122 303.887 66.0122C306.895 66.0122 309.724 66.1051 311.853 66.2737C312.894 66.3561 313.713 66.4523 314.287 66.5598C314.951 66.6841 315.362 66.8238 315.362 67.1359C315.362 67.4479 314.951 67.5875 314.287 67.7119C313.713 67.8194 312.894 67.9157 311.853 67.998C309.725 68.1665 306.896 68.2594 303.888 68.2594H303.887ZM293.054 67.1359C294.003 67.4365 297.874 67.7921 303.887 67.7921C309.901 67.7921 313.771 67.4365 314.721 67.1359C313.771 66.8353 309.901 66.4795 303.887 66.4795C297.874 66.4795 294.003 66.8353 293.054 67.1359Z" fill="#160229"/>
<path d="M297.889 72.8374C297.827 72.8374 297.767 72.8128 297.723 72.769C297.678 72.7252 297.654 72.6657 297.654 72.6038V67.8941C297.654 67.8321 297.678 67.7727 297.723 67.7288C297.767 67.685 297.827 67.6604 297.889 67.6604C297.952 67.6604 298.012 67.685 298.056 67.7288C298.101 67.7727 298.125 67.8321 298.125 67.8941V72.6038C298.125 72.6657 298.101 72.7252 298.056 72.769C298.012 72.8128 297.952 72.8374 297.889 72.8374ZM303.887 73.0742C303.825 73.0742 303.765 73.0496 303.721 73.0058C303.676 72.962 303.651 72.9025 303.651 72.8406V68.0257C303.651 67.9637 303.676 67.9043 303.721 67.8605C303.765 67.8167 303.825 67.7921 303.887 67.7921C303.95 67.7921 304.01 67.8167 304.054 67.8605C304.098 67.9043 304.123 67.9637 304.123 68.0257V72.8406C304.123 72.9025 304.098 72.962 304.054 73.0058C304.01 73.0496 303.95 73.0742 303.887 73.0742ZM309.885 72.7907C309.823 72.7907 309.763 72.7661 309.719 72.7223C309.674 72.6784 309.649 72.619 309.649 72.557V67.8941C309.649 67.8321 309.674 67.7727 309.719 67.7288C309.763 67.685 309.823 67.6604 309.885 67.6604C309.948 67.6604 310.008 67.685 310.052 67.7288C310.096 67.7727 310.121 67.8321 310.121 67.8941V72.557C310.121 72.619 310.096 72.6784 310.052 72.7223C310.008 72.7661 309.948 72.7907 309.885 72.7907Z" fill="#160229"/>
<path d="M290.956 62.321V67.1357C290.956 67.6272 295.987 68.0257 302.194 68.0257C308.401 68.0257 313.433 67.6272 313.433 67.1357V62.321H290.956Z" fill="#0FDF8F"/>
<path d="M302.194 68.2594C299.186 68.2594 296.357 68.1665 294.229 67.9979C293.188 67.9156 292.369 67.8193 291.795 67.7118C291.131 67.5875 290.72 67.4478 290.72 67.1357V62.321C290.72 62.259 290.745 62.1996 290.789 62.1558C290.833 62.112 290.893 62.0873 290.956 62.0873H313.433C313.496 62.0873 313.556 62.112 313.6 62.1558C313.644 62.1996 313.669 62.259 313.669 62.321V67.1357C313.669 67.4478 313.257 67.5874 312.594 67.7118C312.019 67.8193 311.201 67.9156 310.16 67.9979C308.031 68.1665 305.202 68.2594 302.194 68.2594ZM291.192 67.0659C291.714 67.378 295.707 67.7921 302.194 67.7921C308.682 67.7921 312.675 67.378 313.197 67.0659V62.5546H291.192V67.0659Z" fill="#160229"/>
<path d="M302.194 63.211C308.401 63.211 313.433 62.8125 313.433 62.321C313.433 61.8295 308.401 61.431 302.194 61.431C295.987 61.431 290.956 61.8295 290.956 62.321C290.956 62.8125 295.987 63.211 302.194 63.211Z" fill="#160229"/>
<path d="M302.194 63.4446C299.186 63.4446 296.357 63.3517 294.229 63.1833C293.188 63.1009 292.369 63.0047 291.795 62.8971C291.131 62.7729 290.72 62.633 290.72 62.321C290.72 62.009 291.131 61.8693 291.795 61.7449C292.369 61.6374 293.188 61.5412 294.229 61.4588C296.357 61.2904 299.186 61.1975 302.194 61.1975C305.202 61.1975 308.031 61.2904 310.16 61.4588C311.201 61.5412 312.019 61.6374 312.594 61.7449C313.257 61.8692 313.669 62.009 313.669 62.321C313.669 62.633 313.257 62.7728 312.594 62.8971C312.019 63.0047 311.201 63.1009 310.16 63.1833C308.031 63.3517 305.202 63.4446 302.194 63.4446H302.194ZM291.361 62.321C292.31 62.6216 296.181 62.9773 302.194 62.9773C308.208 62.9773 312.078 62.6216 313.027 62.321C312.078 62.0204 308.208 61.6648 302.194 61.6648C296.181 61.6648 292.31 62.0204 291.361 62.321Z" fill="#160229"/>
<path d="M296.255 68.0785C296.193 68.0785 296.133 68.0542 296.089 68.011C296.045 67.9678 296.02 67.9092 296.019 67.8477L295.96 63.0821C295.96 63.0514 295.966 63.021 295.977 62.9925C295.989 62.964 296.006 62.938 296.028 62.9161C296.049 62.8941 296.075 62.8766 296.104 62.8645C296.132 62.8524 296.163 62.846 296.194 62.8457C296.322 62.8419 296.431 62.9475 296.432 63.0765L296.491 67.8421C296.491 67.8728 296.485 67.9032 296.474 67.9317C296.462 67.9602 296.445 67.9862 296.424 68.0081C296.402 68.0301 296.376 68.0476 296.348 68.0597C296.319 68.0718 296.289 68.0782 296.258 68.0785H296.255H296.255ZM302.194 68.2594C302.132 68.2594 302.072 68.2348 302.027 68.191C301.983 68.1471 301.958 68.0877 301.958 68.0257V63.211C301.958 63.149 301.983 63.0896 302.027 63.0458C302.072 63.002 302.132 62.9773 302.194 62.9773C302.257 62.9773 302.317 63.002 302.361 63.0458C302.405 63.0896 302.43 63.149 302.43 63.211V68.0257C302.43 68.0877 302.405 68.1471 302.361 68.191C302.317 68.2348 302.257 68.2594 302.194 68.2594ZM308.192 68.0343C308.13 68.0343 308.07 68.0097 308.025 67.9658C307.981 67.922 307.956 67.8626 307.956 67.8006V63.0793C307.956 63.0174 307.981 62.9579 308.025 62.9141C308.07 62.8703 308.13 62.8457 308.192 62.8457C308.255 62.8457 308.315 62.8703 308.359 62.9141C308.403 62.9579 308.428 63.0174 308.428 63.0793V67.8006C308.428 67.8626 308.403 67.922 308.359 67.9658C308.315 68.0097 308.255 68.0343 308.192 68.0343Z" fill="#160229"/>
<path d="M292.649 57.5063V62.321C292.649 62.8125 297.68 63.211 303.887 63.211C310.094 63.211 315.126 62.8125 315.126 62.321V57.5063H292.649Z" fill="#0FDF8F"/>
<path d="M303.887 63.4446C300.879 63.4446 298.05 63.3518 295.922 63.1832C294.881 63.1008 294.062 63.0046 293.488 62.8971C292.824 62.7728 292.413 62.6331 292.413 62.321V57.5063C292.413 57.4443 292.438 57.3849 292.482 57.341C292.526 57.2972 292.586 57.2726 292.649 57.2726H315.126C315.189 57.2726 315.249 57.2972 315.293 57.341C315.337 57.3849 315.362 57.4443 315.362 57.5063V62.321C315.362 62.6331 314.95 62.7727 314.287 62.8971C313.712 63.0046 312.893 63.1008 311.853 63.1832C309.724 63.3518 306.895 63.4446 303.887 63.4446H303.887ZM292.885 62.2512C293.407 62.5633 297.4 62.9773 303.887 62.9773C310.375 62.9773 314.368 62.5633 314.89 62.2512V57.7399H292.885V62.2512H292.885Z" fill="#160229"/>
<path d="M303.887 58.3962C310.094 58.3962 315.126 57.9978 315.126 57.5063C315.126 57.0147 310.094 56.6163 303.887 56.6163C297.68 56.6163 292.649 57.0147 292.649 57.5063C292.649 57.9978 297.68 58.3962 303.887 58.3962Z" fill="#160229"/>
<path d="M303.887 58.6299C300.879 58.6299 298.05 58.537 295.922 58.3684C294.881 58.286 294.062 58.1898 293.488 58.0823C292.824 57.958 292.413 57.8183 292.413 57.5062C292.413 57.1942 292.824 57.0546 293.488 56.9302C294.062 56.8227 294.881 56.7264 295.922 56.6441C298.05 56.4756 300.879 56.3827 303.887 56.3827C306.895 56.3827 309.724 56.4756 311.853 56.6441C312.893 56.7264 313.712 56.8227 314.286 56.9302C314.95 57.0545 315.362 57.1942 315.362 57.5062C315.362 57.8183 314.95 57.9579 314.286 58.0823C313.712 58.1898 312.893 58.286 311.853 58.3684C309.724 58.537 306.895 58.6299 303.887 58.6299H303.887ZM293.054 57.5062C294.003 57.8068 297.874 58.1626 303.887 58.1626C309.901 58.1626 313.771 57.8068 314.721 57.5062C313.771 57.2056 309.901 56.85 303.887 56.85C297.874 56.85 294.003 57.2056 293.054 57.5062Z" fill="#160229"/>
<path d="M297.889 63.2702C297.827 63.2702 297.767 63.2456 297.723 63.2018C297.678 63.158 297.654 63.0985 297.654 63.0366V58.2646C297.654 58.2026 297.678 58.1432 297.723 58.0993C297.767 58.0555 297.827 58.0309 297.889 58.0309C297.952 58.0309 298.012 58.0555 298.056 58.0993C298.101 58.1432 298.125 58.2026 298.125 58.2646V63.0366C298.125 63.0985 298.101 63.158 298.056 63.2018C298.012 63.2456 297.952 63.2702 297.889 63.2702ZM303.887 63.4446C303.825 63.4446 303.765 63.42 303.721 63.3762C303.676 63.3324 303.651 63.2729 303.651 63.211V58.3962C303.651 58.3343 303.676 58.2748 303.721 58.231C303.765 58.1872 303.825 58.1626 303.887 58.1626C303.95 58.1626 304.01 58.1872 304.054 58.231C304.098 58.2748 304.123 58.3343 304.123 58.3962V63.211C304.123 63.2729 304.098 63.3324 304.054 63.3762C304.01 63.42 303.95 63.4446 303.887 63.4446ZM309.885 63.1764C309.823 63.1764 309.763 63.1518 309.719 63.108C309.674 63.0641 309.649 63.0047 309.649 62.9427V58.2646C309.649 58.2026 309.674 58.1432 309.719 58.0993C309.763 58.0555 309.823 58.0309 309.885 58.0309C309.948 58.0309 310.008 58.0555 310.052 58.0993C310.096 58.1432 310.121 58.2026 310.121 58.2646V62.9427C310.121 63.0047 310.096 63.0641 310.052 63.108C310.008 63.1518 309.948 63.1764 309.885 63.1764Z" fill="#160229"/>
<path d="M293.616 52.6914V57.5061C293.616 57.9976 298.648 58.3961 304.855 58.3961C311.062 58.3961 316.093 57.9976 316.093 57.5061V52.6914H293.616Z" fill="#0FDF8F"/>
<path d="M304.855 58.6299C301.847 58.6299 299.018 58.537 296.889 58.3684C295.849 58.2861 295.03 58.1898 294.456 58.0823C293.792 57.958 293.38 57.8183 293.38 57.5063V52.6915C293.38 52.6295 293.405 52.5701 293.449 52.5263C293.494 52.4825 293.554 52.4579 293.616 52.4579H316.093C316.156 52.4579 316.216 52.4825 316.26 52.5263C316.305 52.5701 316.329 52.6295 316.329 52.6915V57.5063C316.329 57.8183 315.918 57.9579 315.254 58.0823C314.68 58.1898 313.861 58.2861 312.821 58.3684C310.692 58.537 307.863 58.6299 304.855 58.6299H304.855ZM293.852 57.4364C294.374 57.7486 298.368 58.1626 304.855 58.1626C311.342 58.1626 315.335 57.7486 315.858 57.4364V52.9252H293.852V57.4364Z" fill="#160229"/>
<path d="M304.855 53.5815C311.062 53.5815 316.094 53.183 316.094 52.6915C316.094 52.2 311.062 51.8015 304.855 51.8015C298.648 51.8015 293.616 52.2 293.616 52.6915C293.616 53.183 298.648 53.5815 304.855 53.5815Z" fill="#160229"/>
<path d="M304.855 53.8151C301.847 53.8151 299.018 53.7223 296.889 53.5537C295.849 53.4713 295.03 53.3751 294.456 53.2676C293.792 53.1433 293.38 53.0035 293.38 52.6915C293.38 52.3795 293.792 52.2399 294.456 52.1154C295.03 52.008 295.849 51.9117 296.889 51.8293C299.018 51.6607 301.847 51.5679 304.855 51.5679C307.863 51.5679 310.692 51.6607 312.821 51.8293C313.861 51.9117 314.68 52.008 315.254 52.1154C315.918 52.2397 316.33 52.3795 316.33 52.6915C316.33 53.0035 315.918 53.1432 315.254 53.2676C314.68 53.3751 313.861 53.4713 312.821 53.5537C310.692 53.7223 307.863 53.8151 304.855 53.8151ZM294.022 52.6915C294.971 52.9921 298.841 53.3478 304.855 53.3478C310.868 53.3478 314.739 52.9921 315.688 52.6915C314.739 52.3909 310.868 52.0352 304.855 52.0352C298.841 52.0352 294.971 52.3909 294.022 52.6915Z" fill="#160229"/>
<path d="M304.855 58.6299C304.792 58.6299 304.732 58.6053 304.688 58.5615C304.644 58.5176 304.619 58.4582 304.619 58.3962V53.5815C304.619 53.5195 304.644 53.4601 304.688 53.4163C304.732 53.3725 304.792 53.3478 304.855 53.3478C304.917 53.3478 304.977 53.3725 305.022 53.4163C305.066 53.4601 305.091 53.5195 305.091 53.5815V58.3962C305.091 58.4582 305.066 58.5176 305.022 58.5615C304.977 58.6053 304.917 58.6299 304.855 58.6299ZM298.798 58.4982C298.735 58.4982 298.675 58.4736 298.631 58.4298C298.587 58.386 298.562 58.3265 298.562 58.2646V53.5815C298.562 53.5195 298.587 53.4601 298.631 53.4163C298.675 53.3725 298.735 53.3478 298.798 53.3478C298.86 53.3478 298.92 53.3725 298.965 53.4163C299.009 53.4601 299.034 53.5195 299.034 53.5815V58.2646C299.034 58.3265 299.009 58.386 298.965 58.4298C298.92 58.4736 298.86 58.4982 298.798 58.4982ZM310.794 58.4982C310.731 58.4982 310.671 58.4736 310.627 58.4298C310.583 58.386 310.558 58.3265 310.558 58.2646V53.5815C310.558 53.5195 310.583 53.4601 310.627 53.4163C310.671 53.3725 310.731 53.3478 310.794 53.3478C310.856 53.3478 310.916 53.3725 310.961 53.4163C311.005 53.4601 311.03 53.5195 311.03 53.5815V58.2646C311.03 58.3265 311.005 58.386 310.961 58.4298C310.916 58.4736 310.856 58.4982 310.794 58.4982ZM305.434 92.0927C299.925 92.0352 295.672 91.6616 295.672 91.2089V87.0007C293.797 86.8427 292.649 86.6296 292.649 86.3947V83.4021L294.101 82.019L294.562 81.5795L295.149 81.0203L296.397 79.8311L298.689 77.6455L299.015 77.3354L299.262 77.0995L299.373 77.3677L299.49 77.6528L300.755 80.7245L301.107 81.5795L301.413 82.3221L301.465 82.4502L302.749 85.5687L303.089 86.395L303.437 87.2417L303.455 87.2837L305.433 92.0929L305.434 92.0927Z" fill="#160229"/>
<path d="M305.434 92.3263H305.431C302.745 92.2983 300.271 92.1936 298.466 92.0317C297.568 91.9512 296.865 91.8593 296.375 91.7587C295.795 91.6396 295.436 91.5061 295.436 91.2089V87.2149C294.578 87.1383 293.898 87.0513 293.411 86.9556C292.795 86.8346 292.413 86.6986 292.413 86.3947V83.4021C292.413 83.3707 292.419 83.3396 292.432 83.3106C292.444 83.2817 292.462 83.2556 292.485 83.2338L299.099 76.9309C299.127 76.9045 299.161 76.8852 299.198 76.8747C299.235 76.8643 299.274 76.863 299.312 76.8709C299.349 76.8788 299.385 76.8958 299.414 76.9203C299.444 76.9448 299.467 76.9761 299.481 77.0114L305.652 92.0045C305.667 92.04 305.672 92.0785 305.668 92.1165C305.664 92.1546 305.651 92.1912 305.629 92.2229C305.608 92.2547 305.579 92.2808 305.545 92.2988C305.51 92.3168 305.472 92.3263 305.434 92.3263ZM295.908 91.1392C296.353 91.4039 299.391 91.7817 305.081 91.855L299.175 77.5067L292.885 83.5017V86.3227C293.01 86.39 293.547 86.5872 295.692 86.7679C295.751 86.7729 295.806 86.7995 295.846 86.8427C295.886 86.8858 295.908 86.9422 295.908 87.0007V91.1392H295.908Z" fill="#160229"/>
<path d="M291.463 71.3153H287.562V72.4172C284.717 74.1257 282.764 77.6439 282.764 81.7074C282.764 85.771 284.717 89.2892 287.562 90.9977V92.0996H291.463C296.267 92.0996 300.162 87.4469 300.162 81.7074C300.162 75.968 296.267 71.3153 291.463 71.3153Z" fill="#0FDF8F"/>
<path d="M291.463 92.3332H287.562C287.499 92.3332 287.439 92.3086 287.395 92.2648C287.351 92.221 287.326 92.1616 287.326 92.0996V91.1282C284.363 89.2869 282.528 85.6912 282.528 81.7075C282.528 77.7237 284.363 74.128 287.326 72.2868V71.3154C287.326 71.2535 287.351 71.194 287.395 71.1502C287.439 71.1064 287.499 71.0818 287.562 71.0818H291.463C296.39 71.0818 300.398 75.8485 300.398 81.7075C300.398 87.5664 296.39 92.3332 291.463 92.3332ZM287.798 91.8659H291.463C296.13 91.8659 299.926 87.3088 299.926 81.7075C299.926 76.1061 296.13 71.5491 291.463 71.5491H287.798V72.4173C287.798 72.499 287.755 72.5748 287.684 72.6171C284.795 74.3521 283 77.8354 283 81.7076C283 85.5798 284.795 89.0631 287.684 90.7981C287.755 90.8404 287.798 90.9163 287.798 90.9979V91.8662V91.8659Z" fill="#160229"/>
<path d="M287.562 92.0996C292.366 92.0996 296.261 87.4469 296.261 81.7074C296.261 75.968 292.366 71.3153 287.562 71.3153C282.757 71.3153 278.863 75.968 278.863 81.7074C278.863 87.4469 282.757 92.0996 287.562 92.0996Z" fill="white"/>
<path d="M287.562 92.3332C282.635 92.3332 278.627 87.5665 278.627 81.7075C278.627 75.8484 282.635 71.0818 287.562 71.0818C292.489 71.0818 296.497 75.8485 296.497 81.7075C296.497 87.5664 292.489 92.3332 287.562 92.3332ZM287.562 71.5491C282.895 71.5491 279.099 76.1061 279.099 81.7075C279.099 87.3088 282.895 91.8659 287.562 91.8659C292.228 91.8659 296.025 87.3088 296.025 81.7075C296.025 76.1061 292.228 71.5491 287.562 71.5491Z" fill="#160229"/>
<path d="M287.562 89.3452C286.081 89.3452 284.657 88.6182 283.552 87.2979C282.322 85.8282 281.644 83.8428 281.644 81.7074C281.644 79.5721 282.322 77.5866 283.552 76.1168C284.657 74.7967 286.081 74.0697 287.562 74.0697C289.042 74.0697 290.467 74.7967 291.572 76.1168C292.802 77.5866 293.48 79.5721 293.48 81.7074C293.48 83.8428 292.802 85.8282 291.572 87.2979C290.466 88.6182 289.042 89.3452 287.562 89.3452Z" fill="white"/>
<path d="M287.562 89.5788C286.009 89.5788 284.521 88.8218 283.37 87.4471C282.105 85.9356 281.408 83.8972 281.408 81.7074C281.408 79.5177 282.105 77.4794 283.37 75.9678C284.521 74.5931 286.01 73.8361 287.562 73.8361C289.114 73.8361 290.603 74.5931 291.753 75.9678C293.019 77.4793 293.715 79.5178 293.715 81.7074C293.715 83.8971 293.019 85.9356 291.753 87.4471C290.603 88.8218 289.114 89.5788 287.562 89.5788ZM287.562 74.3034C286.153 74.3034 284.793 75.0003 283.734 76.266C282.538 77.694 281.88 79.6265 281.88 81.7074C281.88 83.7883 282.538 85.721 283.734 87.1488C284.793 88.4145 286.153 89.1115 287.562 89.1115C288.971 89.1115 290.331 88.4145 291.39 87.1488C292.585 85.721 293.244 83.7885 293.244 81.7074C293.244 79.6264 292.585 77.694 291.39 76.266C290.331 75.0005 288.971 74.3034 287.562 74.3034ZM300.155 81.9411H296.261C296.198 81.9411 296.138 81.9165 296.094 81.8727C296.05 81.8288 296.025 81.7694 296.025 81.7074C296.025 81.6455 296.05 81.586 296.094 81.5422C296.138 81.4984 296.198 81.4738 296.261 81.4738H300.155C300.218 81.4738 300.278 81.4984 300.322 81.5422C300.366 81.586 300.391 81.6455 300.391 81.7074C300.391 81.7694 300.366 81.8288 300.322 81.8727C300.278 81.9165 300.218 81.9411 300.155 81.9411ZM298.485 75.7663H294.652C294.589 75.7663 294.529 75.7416 294.485 75.6978C294.441 75.654 294.416 75.5946 294.416 75.5326C294.416 75.4706 294.441 75.4112 294.485 75.3674C294.529 75.3236 294.589 75.299 294.652 75.299H298.485C298.547 75.299 298.607 75.3236 298.652 75.3674C298.696 75.4112 298.721 75.4706 298.721 75.5326C298.721 75.5946 298.696 75.654 298.652 75.6978C298.607 75.7416 298.547 75.7663 298.485 75.7663ZM298.319 88.2312H294.508C294.446 88.2312 294.386 88.2066 294.341 88.1628C294.297 88.119 294.272 88.0596 294.272 87.9976C294.272 87.9356 294.297 87.8762 294.341 87.8324C294.386 87.7885 294.446 87.7639 294.508 87.7639H298.319C298.382 87.7639 298.442 87.7885 298.486 87.8324C298.53 87.8762 298.555 87.9356 298.555 87.9976C298.555 88.0596 298.53 88.119 298.486 88.1628C298.442 88.2066 298.382 88.2312 298.319 88.2312Z" fill="#160229"/>
</g>
<g clip-path="url(#clip5_0_820)">
<path d="M270.154 68.1292C262.558 69.7126 255.351 72.753 248.932 77.082L248.721 75.2122L258.797 78.4506C259.039 78.5286 259.252 78.6764 259.41 78.8751C259.568 79.0738 259.664 79.3145 259.685 79.5667C259.706 79.8189 259.652 80.0712 259.529 80.2917C259.406 80.5122 259.22 80.6908 258.994 80.805L258.961 80.8219C253.381 83.6521 248.252 87.2872 243.74 91.6109C243.414 91.921 242.978 92.0885 242.526 92.0766C242.075 92.0648 241.646 91.8745 241.333 91.5477C241.02 91.2209 240.85 90.7843 240.859 90.3339C240.868 89.8836 241.056 89.4564 241.382 89.1463C241.398 89.1308 241.42 89.1106 241.437 89.0952C246.354 84.7811 251.884 81.2149 257.85 78.5111L258.016 80.883L248.008 77.1808L247.982 77.1712C247.799 77.103 247.638 76.9847 247.518 76.8299C247.399 76.6751 247.325 76.4901 247.305 76.2959C247.286 76.1018 247.321 75.9065 247.408 75.7323C247.495 75.5581 247.629 75.4121 247.796 75.3111C254.572 71.158 262.099 68.3607 269.96 67.0741C270.098 67.0524 270.24 67.0859 270.355 67.1673C270.47 67.2487 270.549 67.3716 270.574 67.5096C270.6 67.6477 270.57 67.7898 270.491 67.9057C270.413 68.0215 270.292 68.1017 270.154 68.1292Z" fill="#160229"/>
<path d="M267.868 70.5138C267.154 69.0538 266.561 67.5387 266.094 65.9837C267.734 66.4323 269.376 66.8773 271.021 67.3184C269.916 68.3534 268.865 69.4185 267.868 70.5138Z" fill="#160229"/>
<path d="M271.188 67.2725L271.189 67.2765C271.197 67.3064 271.197 67.3378 271.188 67.3674C271.179 67.3971 271.163 67.4238 271.14 67.4449C270.051 68.4646 269.002 69.5273 267.997 70.6304C267.978 70.6514 267.954 70.6673 267.927 70.6769C267.901 70.6864 267.872 70.6893 267.844 70.6852C267.816 70.6811 267.789 70.6701 267.766 70.6533C267.743 70.6365 267.725 70.6144 267.712 70.5889C266.995 69.12 266.398 67.5961 265.928 66.0323C265.919 66.0028 265.918 65.9714 265.925 65.9415C265.932 65.9116 265.948 65.8842 265.969 65.8623C265.991 65.8403 266.018 65.8245 266.048 65.8164C266.077 65.8084 266.109 65.8085 266.139 65.8167C267.778 66.2653 269.421 66.7101 271.065 67.1513C271.095 67.1592 271.121 67.1745 271.143 67.1957C271.164 67.217 271.18 67.2434 271.188 67.2725ZM267.913 70.2079C268.801 69.2417 269.723 68.3067 270.676 67.4046C269.232 67.0171 267.791 66.6265 266.352 66.2328C266.777 67.5928 267.298 68.9212 267.913 70.2079Z" fill="#160229"/>
</g>
</g>
<path d="M28.432 35V33H23.712V23.32H21.44V35H28.432ZM33.582 35.304C35.726 35.304 37.23 34.12 37.614 32.328H35.566C35.374 32.968 34.654 33.464 33.582 33.464C32.11 33.464 31.374 32.552 31.23 31.192H37.758V30.392C37.758 28.104 36.286 26.008 33.486 26.008C30.622 26.008 29.118 28.2 29.118 30.504V30.808C29.118 33.032 30.59 35.304 33.582 35.304ZM33.486 27.848C34.734 27.848 35.454 28.568 35.63 29.832H31.262C31.486 28.584 32.238 27.848 33.486 27.848ZM41.7599 35.224C43.2319 35.224 44.1759 34.568 44.5599 33.336V35H46.3199V29.608C46.3199 27.192 44.9599 26.184 42.2879 26.184C41.4239 26.184 40.3199 26.232 39.5839 26.296V28.184C40.4799 28.12 41.8879 28.072 42.6879 28.072C43.6959 28.072 44.1919 28.568 44.1919 29.56V29.64H42.4159C40.0959 29.64 38.6079 30.52 38.6079 32.424C38.6079 34.2 39.8559 35.224 41.7599 35.224ZM42.3839 33.64C41.3599 33.64 40.7999 33.112 40.7999 32.312C40.7999 31.512 41.3759 30.968 42.3839 30.968H44.1919V31.784C44.1279 33.208 43.2959 33.64 42.3839 33.64ZM50.6061 35V30.472C50.6061 28.968 51.4541 28.136 52.9581 28.136H53.5661V26.2H53.2461C51.4381 26.2 50.3661 27.208 50.1421 29.144V26.312H48.3821V35H50.6061ZM56.958 35V29.896C56.958 28.776 57.694 28.04 58.782 28.04C59.838 28.04 60.494 28.76 60.494 29.832V35H62.718V30.024C62.718 27.384 61.63 26.04 59.566 26.04H59.47C57.854 26.04 56.862 26.856 56.494 28.456V26.312H54.734V35H56.958ZM70.1461 35V29.896C70.1461 28.76 70.8021 28.04 71.8421 28.04C72.8661 28.04 73.4421 28.744 73.4421 29.832V35H75.6661V29.896C75.6661 28.76 76.3221 28.04 77.3621 28.04C78.3861 28.04 78.9621 28.744 78.9621 29.832V35H81.1861V30.04C81.1861 27.432 80.1461 26.04 78.1461 26.04H78.0501C76.6741 26.04 75.7621 26.712 75.3301 28.008C74.8981 26.712 74.0021 26.04 72.6101 26.04H72.5141C70.9941 26.04 70.0341 26.872 69.6821 28.44V26.312H67.9221V35H70.1461ZM87.4187 35.304C90.4587 35.304 92.1547 33.144 92.1547 30.84V30.504C92.1547 28.12 90.3627 26.008 87.4187 26.008C84.4587 26.008 82.6667 28.12 82.6667 30.504V30.84C82.6667 33.144 84.3627 35.304 87.4187 35.304ZM87.4187 33.4C85.7867 33.4 84.8907 32.232 84.8907 30.664C84.8907 29.08 85.8347 27.912 87.4187 27.912C88.9867 27.912 89.9307 29.08 89.9307 30.664C89.9307 32.232 89.0347 33.4 87.4187 33.4ZM96.0061 35V30.472C96.0061 28.968 96.8541 28.136 98.3581 28.136H98.9661V26.2H98.6461C96.8381 26.2 95.7661 27.208 95.5421 29.144V26.312H93.7821V35H96.0061ZM103.96 35.304C106.104 35.304 107.608 34.12 107.992 32.328H105.944C105.752 32.968 105.032 33.464 103.96 33.464C102.488 33.464 101.752 32.552 101.608 31.192H108.136V30.392C108.136 28.104 106.664 26.008 103.864 26.008C101 26.008 99.4955 28.2 99.4955 30.504V30.808C99.4955 33.032 100.968 35.304 103.96 35.304ZM103.864 27.848C105.112 27.848 105.832 28.568 106.008 29.832H101.64C101.864 28.584 102.616 27.848 103.864 27.848ZM115.271 35.224C116.743 35.224 117.687 34.568 118.071 33.336V35H119.831V29.608C119.831 27.192 118.471 26.184 115.799 26.184C114.935 26.184 113.831 26.232 113.095 26.296V28.184C113.991 28.12 115.399 28.072 116.199 28.072C117.207 28.072 117.703 28.568 117.703 29.56V29.64H115.927C113.607 29.64 112.119 30.52 112.119 32.424C112.119 34.2 113.367 35.224 115.271 35.224ZM115.895 33.64C114.871 33.64 114.311 33.112 114.311 32.312C114.311 31.512 114.887 30.968 115.895 30.968H117.703V31.784C117.639 33.208 116.807 33.64 115.895 33.64ZM126.997 35.288C129.525 35.288 131.125 33.304 131.125 30.792V30.456C131.125 27.96 129.557 26.04 127.141 26.04C125.829 26.04 124.741 26.6 124.117 27.72V23.32H121.893V35H123.653V33.112C124.213 34.52 125.413 35.288 126.997 35.288ZM126.501 33.416C125.253 33.416 124.053 32.536 124.053 31.032V30.392C124.053 28.824 125.189 27.912 126.501 27.912C127.925 27.912 128.901 28.984 128.901 30.632C128.901 32.264 127.925 33.416 126.501 33.416ZM136.936 35.304C139.976 35.304 141.672 33.144 141.672 30.84V30.504C141.672 28.12 139.88 26.008 136.936 26.008C133.976 26.008 132.184 28.12 132.184 30.504V30.84C132.184 33.144 133.88 35.304 136.936 35.304ZM136.936 33.4C135.304 33.4 134.408 32.232 134.408 30.664C134.408 29.08 135.352 27.912 136.936 27.912C138.504 27.912 139.448 29.08 139.448 30.664C139.448 32.232 138.552 33.4 136.936 33.4ZM146.356 35.272C147.892 35.272 148.836 34.504 149.204 32.984V35H150.964V26.296H148.74V31.432C148.74 32.568 148.02 33.272 146.996 33.272C145.988 33.272 145.332 32.6 145.332 31.528V26.296H143.108V31.336C143.108 33.944 144.244 35.272 146.26 35.272H146.356ZM158.222 35.112V33.208H156.862C156.014 33.208 155.534 32.728 155.534 31.88V27.944H158.222V26.312H155.55V23.864H153.47V26.312H152.078V27.944H153.454V31.736C153.454 34.28 154.574 35.112 156.974 35.112H158.222ZM25.12 55.304C27.408 55.304 29.12 53.896 29.248 51.768H27.088C26.976 52.712 26.272 53.384 25.12 53.384C23.568 53.384 22.912 52.216 22.912 50.664C22.912 49.064 23.616 47.928 25.104 47.928C26.24 47.928 26.896 48.6 27.008 49.496H29.168C29.024 47.416 27.376 46.008 25.104 46.008C22.192 46.008 20.688 48.2 20.688 50.52V50.824C20.688 53.048 22.128 55.304 25.12 55.304ZM33.1736 55.224C34.6456 55.224 35.5896 54.568 35.9736 53.336V55H37.7336V49.608C37.7336 47.192 36.3736 46.184 33.7016 46.184C32.8376 46.184 31.7336 46.232 30.9976 46.296V48.184C31.8936 48.12 33.3016 48.072 34.1016 48.072C35.1096 48.072 35.6056 48.568 35.6056 49.56V49.64H33.8296C31.5096 49.64 30.0216 50.52 30.0216 52.424C30.0216 54.2 31.2696 55.224 33.1736 55.224ZM33.7976 53.64C32.7736 53.64 32.2136 53.112 32.2136 52.312C32.2136 51.512 32.7896 50.968 33.7976 50.968H35.6056V51.784C35.5416 53.208 34.7096 53.64 33.7976 53.64ZM42.0199 55V50.472C42.0199 48.968 42.8679 48.136 44.3719 48.136H44.9799V46.2H44.6599C42.8519 46.2 41.7799 47.208 41.5559 49.144V46.312H39.7959V55H42.0199ZM51.2518 55.288C53.7798 55.288 55.3798 53.304 55.3798 50.792V50.456C55.3798 47.96 53.8118 46.04 51.3958 46.04C50.0838 46.04 48.9958 46.6 48.3718 47.72V43.32H46.1478V55H47.9078V53.112C48.4678 54.52 49.6678 55.288 51.2518 55.288ZM50.7558 53.416C49.5078 53.416 48.3078 52.536 48.3078 51.032V50.392C48.3078 48.824 49.4438 47.912 50.7558 47.912C52.1798 47.912 53.1558 48.984 53.1558 50.632C53.1558 52.264 52.1798 53.416 50.7558 53.416ZM61.1913 55.304C64.2313 55.304 65.9273 53.144 65.9273 50.84V50.504C65.9273 48.12 64.1353 46.008 61.1913 46.008C58.2313 46.008 56.4393 48.12 56.4393 50.504V50.84C56.4393 53.144 58.1353 55.304 61.1913 55.304ZM61.1913 53.4C59.5593 53.4 58.6633 52.232 58.6633 50.664C58.6633 49.08 59.6073 47.912 61.1913 47.912C62.7593 47.912 63.7033 49.08 63.7033 50.664C63.7033 52.232 62.8073 53.4 61.1913 53.4ZM69.7786 55V49.896C69.7786 48.776 70.5146 48.04 71.6026 48.04C72.6586 48.04 73.3146 48.76 73.3146 49.832V55H75.5386V50.024C75.5386 47.384 74.4506 46.04 72.3866 46.04H72.2906C70.6746 46.04 69.6826 46.856 69.3146 48.456V46.312H67.5546V55H69.7786ZM84.5987 55.304C86.8867 55.304 88.5987 53.896 88.7267 51.768H86.5667C86.4547 52.712 85.7507 53.384 84.5987 53.384C83.0467 53.384 82.3907 52.216 82.3907 50.664C82.3907 49.064 83.0947 47.928 84.5827 47.928C85.7187 47.928 86.3747 48.6 86.4867 49.496H88.6467C88.5027 47.416 86.8547 46.008 84.5827 46.008C81.6707 46.008 80.1667 48.2 80.1667 50.52V50.824C80.1667 53.048 81.6067 55.304 84.5987 55.304ZM92.4124 55V50.472C92.4124 48.968 93.2604 48.136 94.7644 48.136H95.3724V46.2H95.0524C93.2444 46.2 92.1724 47.208 91.9484 49.144V46.312H90.1884V55H92.4124ZM100.366 55.304C102.51 55.304 104.014 54.12 104.398 52.328H102.35C102.158 52.968 101.438 53.464 100.366 53.464C98.8938 53.464 98.1578 52.552 98.0138 51.192H104.542V50.392C104.542 48.104 103.07 46.008 100.27 46.008C97.4058 46.008 95.9018 48.2 95.9018 50.504V50.808C95.9018 53.032 97.3738 55.304 100.366 55.304ZM100.27 47.848C101.518 47.848 102.238 48.568 102.414 49.832H98.0458C98.2698 48.584 99.0218 47.848 100.27 47.848ZM109.68 55.288C111.168 55.288 112.384 54.584 112.976 53.16V55H114.736V43.32H112.512V47.56C111.888 46.536 110.88 46.04 109.616 46.04C107.136 46.04 105.504 48.008 105.504 50.504V50.84C105.504 53.368 107.232 55.288 109.68 55.288ZM110.176 53.416C108.752 53.416 107.728 52.344 107.728 50.68C107.728 49.016 108.736 47.912 110.176 47.912C111.44 47.912 112.576 48.76 112.576 50.28V50.92C112.576 52.488 111.488 53.416 110.176 53.416ZM118.179 45.272C119.043 45.272 119.443 44.76 119.443 44.056C119.443 43.352 119.043 42.856 118.179 42.856C117.299 42.856 116.899 43.352 116.899 44.056C116.899 44.76 117.299 45.272 118.179 45.272ZM119.587 55V46.312H116.147V47.976H117.363V55H119.587ZM126.854 55.112V53.208H125.494C124.646 53.208 124.166 52.728 124.166 51.88V47.944H126.854V46.312H124.182V43.864H122.102V46.312H120.71V47.944H122.086V51.736C122.086 54.28 123.206 55.112 125.606 55.112H126.854ZM131.49 55.272C133.778 55.272 135.282 54.152 135.282 52.44C135.282 50.888 134.034 49.944 132.002 49.736L131.234 49.656C130.29 49.544 129.906 49.256 129.906 48.712C129.906 48.136 130.434 47.736 131.378 47.736C132.434 47.736 132.978 48.216 133.026 48.824H135.026C134.962 47.016 133.538 46.056 131.394 46.056C129.346 46.056 127.89 47.016 127.89 48.792C127.89 50.28 128.962 51.208 130.914 51.416L131.682 51.496C132.85 51.608 133.266 51.944 133.266 52.52C133.266 53.176 132.578 53.592 131.522 53.592C130.242 53.592 129.666 53.016 129.618 52.408H127.618C127.682 54.2 129.09 55.272 131.49 55.272Z" fill="white"/>
<path d="M26.076 82.216C28.524 82.216 29.868 80.74 30.108 78.94H28.908C28.68 80.368 27.576 81.136 26.076 81.136C23.94 81.136 22.872 79.492 22.872 77.608C22.872 75.64 23.928 74.08 26.004 74.08C27.432 74.08 28.548 74.788 28.752 76.276H29.952C29.724 74.296 28.344 73 26.004 73C22.92 73 21.672 75.352 21.672 77.464V77.728C21.672 79.684 22.86 82.216 26.076 82.216ZM32.5551 82V78.304C32.5551 77.2 33.2151 76.456 34.2471 76.456C35.1711 76.456 35.8191 77.056 35.8191 78.1V82H36.9711V78.34C36.9711 76.456 36.1791 75.4 34.6431 75.4H34.5951C33.5631 75.4 32.9031 75.88 32.5551 76.72V73.24H31.4031V82H32.5551ZM41.5628 82.216C43.0748 82.216 44.1668 81.424 44.4428 80.092H43.3628C43.2308 80.692 42.5708 81.208 41.5628 81.208C40.1828 81.208 39.5348 80.272 39.4628 79.012H44.5508V78.496C44.5508 76.9 43.5668 75.376 41.4908 75.376C39.3428 75.376 38.3588 77.032 38.3588 78.688V78.904C38.3588 80.524 39.3068 82.216 41.5628 82.216ZM41.4908 76.384C42.6428 76.384 43.2788 77.056 43.4228 78.148H39.5108C39.6908 77.092 40.3388 76.384 41.4908 76.384ZM48.6945 82.216C50.3145 82.216 51.5745 81.256 51.6585 79.744H50.5545C50.4585 80.56 49.7625 81.184 48.6945 81.184C47.2905 81.184 46.6185 80.128 46.6185 78.796C46.6185 77.428 47.2905 76.408 48.6705 76.408C49.7265 76.408 50.3625 77.008 50.4825 77.812H51.5865C51.4785 76.324 50.2785 75.376 48.6705 75.376C46.5225 75.376 45.4665 77.068 45.4665 78.688V78.904C45.4665 80.488 46.4985 82.216 48.6945 82.216ZM54.1358 82V79.012H54.9878L57.3998 82H58.7318L55.7198 78.328L58.0838 75.592H56.8718L54.1358 78.772V73.24H52.9838V82H54.1358ZM65.0652 82.216C67.2972 82.216 68.4972 80.524 68.4972 78.904V78.688C68.4972 77.044 67.2372 75.376 65.0652 75.376C62.8932 75.376 61.6332 77.044 61.6332 78.688V78.904C61.6332 80.524 62.8332 82.216 65.0652 82.216ZM65.0652 81.184C63.6252 81.184 62.7852 80.14 62.7852 78.796C62.7852 77.428 63.6612 76.408 65.0652 76.408C66.4692 76.408 67.3452 77.428 67.3452 78.796C67.3452 80.14 66.5052 81.184 65.0652 81.184ZM72.2506 82.192C73.3906 82.192 74.0866 81.616 74.3746 80.524V82H75.2866V75.58H74.1346V79.408C74.1346 80.476 73.4626 81.136 72.5026 81.136C71.5786 81.136 70.9906 80.536 70.9906 79.528V75.58H69.8386V79.3C69.8386 81.172 70.6786 82.192 72.2026 82.192H72.2506ZM80.7578 82.072V81.04H79.6298C78.9458 81.04 78.5498 80.644 78.5498 79.96V76.456H80.7578V75.592H78.5498V73.648H77.4458V75.592H76.3418V76.456H77.4458V79.816C77.4458 81.532 78.3458 82.072 79.7738 82.072H80.7578ZM87.5896 82.216C89.8216 82.216 91.0216 80.524 91.0216 78.904V78.688C91.0216 77.044 89.7616 75.376 87.5896 75.376C85.4176 75.376 84.1576 77.044 84.1576 78.688V78.904C84.1576 80.524 85.3576 82.216 87.5896 82.216ZM87.5896 81.184C86.1496 81.184 85.3096 80.14 85.3096 78.796C85.3096 77.428 86.1856 76.408 87.5896 76.408C88.9936 76.408 89.8696 77.428 89.8696 78.796C89.8696 80.14 89.0296 81.184 87.5896 81.184ZM94.775 82.192C95.915 82.192 96.611 81.616 96.899 80.524V82H97.811V75.58H96.659V79.408C96.659 80.476 95.987 81.136 95.027 81.136C94.103 81.136 93.515 80.536 93.515 79.528V75.58H92.363V79.3C92.363 81.172 93.203 82.192 94.727 82.192H94.775ZM100.954 82V78.532C100.954 77.26 101.662 76.552 102.946 76.552H103.354V75.52H103.138C101.722 75.52 100.918 76.144 100.714 77.512V75.592H99.8021V82H100.954ZM110.454 82.072V81.04H109.326C108.642 81.04 108.246 80.644 108.246 79.96V76.456H110.454V75.592H108.246V73.648H107.142V75.592H106.038V76.456H107.142V79.816C107.142 81.532 108.042 82.072 109.47 82.072H110.454ZM114.749 82.216C116.981 82.216 118.181 80.524 118.181 78.904V78.688C118.181 77.044 116.921 75.376 114.749 75.376C112.577 75.376 111.317 77.044 111.317 78.688V78.904C111.317 80.524 112.517 82.216 114.749 82.216ZM114.749 81.184C113.309 81.184 112.469 80.14 112.469 78.796C112.469 77.428 113.345 76.408 114.749 76.408C116.153 76.408 117.029 77.428 117.029 78.796C117.029 80.14 116.189 81.184 114.749 81.184ZM120.818 84.4V81.04C121.346 81.868 122.222 82.216 123.098 82.216C124.922 82.216 126.206 80.704 126.206 78.904V78.688C126.206 76.888 124.982 75.376 123.122 75.376C121.982 75.376 120.998 75.94 120.578 77.164V75.592H119.666V84.4H120.818ZM122.918 81.208C121.778 81.208 120.77 80.428 120.77 79.108V78.556C120.77 77.2 121.754 76.384 122.918 76.384C124.202 76.384 125.054 77.368 125.054 78.796C125.054 80.224 124.202 81.208 122.918 81.208ZM133.67 82.072V81.04H132.542C131.858 81.04 131.462 80.644 131.462 79.96V76.456H133.67V75.592H131.462V73.648H130.358V75.592H129.254V76.456H130.358V79.816C130.358 81.532 131.258 82.072 132.686 82.072H133.67ZM135.696 74.56C136.212 74.56 136.452 74.26 136.452 73.84C136.452 73.42 136.212 73.12 135.696 73.12C135.18 73.12 134.94 73.42 134.94 73.84C134.94 74.26 135.18 74.56 135.696 74.56ZM136.524 82V75.592H134.388V76.504H135.372V82H136.524ZM139.663 84.4V81.04C140.191 81.868 141.067 82.216 141.943 82.216C143.767 82.216 145.051 80.704 145.051 78.904V78.688C145.051 76.888 143.827 75.376 141.967 75.376C140.827 75.376 139.843 75.94 139.423 77.164V75.592H138.511V84.4H139.663ZM141.763 81.208C140.623 81.208 139.615 80.428 139.615 79.108V78.556C139.615 77.2 140.599 76.384 141.763 76.384C143.047 76.384 143.899 77.368 143.899 78.796C143.899 80.224 143.047 81.208 141.763 81.208ZM148.644 82.192C150.204 82.192 151.308 81.352 151.308 80.152C151.308 79.036 150.396 78.424 149.028 78.28L148.332 78.208C147.576 78.124 147.276 77.836 147.276 77.356C147.276 76.804 147.744 76.384 148.644 76.384C149.544 76.384 149.988 76.792 150.012 77.308H151.092C151.056 76.048 150.084 75.4 148.644 75.4C147.204 75.4 146.196 76.132 146.196 77.356C146.196 78.448 147.036 79.036 148.26 79.168L148.956 79.24C149.856 79.336 150.228 79.624 150.228 80.152C150.228 80.752 149.664 81.208 148.644 81.208C147.504 81.208 147.084 80.68 147.06 80.176H145.98C146.016 81.424 146.964 82.192 148.644 82.192ZM153.998 79.384V73.24H152.822V79.384H153.998ZM154.106 82V80.536H152.714V82H154.106Z" fill="white"/>
<defs>
<clipPath id="clip0_0_820">
<rect width="335" height="105" fill="white"/>
</clipPath>
<clipPath id="clip1_0_820">
<rect width="76.3907" height="66.8036" fill="white" transform="translate(237.392 13.5986)"/>
</clipPath>
<clipPath id="clip2_0_820">
<rect width="47.2507" height="46.8557" fill="white" transform="translate(248.985 26.1514)"/>
</clipPath>
<clipPath id="clip3_0_820">
<rect width="48.1907" height="38.715" fill="white" transform="translate(237.392 53.6186)"/>
</clipPath>
<clipPath id="clip4_0_820">
<rect width="40.4827" height="40.7657" fill="white" transform="translate(278.627 51.5679)"/>
</clipPath>
<clipPath id="clip5_0_820">
<rect width="19.1414" height="35.53" fill="white" transform="matrix(-0.271772 -0.962366 0.964062 -0.265693 241.384 92.4684)"/>
</clipPath>
</defs>
</svg>
