<svg width="375" height="256" viewBox="0 0 375 256" fill="none" xmlns="http://www.w3.org/2000/svg">
<path d="M-1 111.761L12.2109 94.6916L38.4234 108.934L51.3197 111L64.1397 177L77.2051 167.196L89.583 88.9382L114.854 103.734L128.607 35.2306L141.501 53.9051L154.567 81.3219L167.632 94.6916L180.698 46.6394L193.591 24L219.206 35.2306L231.412 24L244.993 109.744L257.027 125.966L270.437 29.8826L282.299 46.6394L297.083 51.8089L322.011 39.6871L335.379 131.75H348.734L361.728 53.9051L374 46.6394" stroke="#0FDF8F" stroke-width="2" stroke-linecap="round" stroke-linejoin="round"/>
<rect x="75" y="221" width="35" height="35" rx="4" fill="#F7EFFF"/>
<path d="M88.9661 244V233.05H84.8561V234.58H87.1961V244H88.9661ZM94.9639 244.27C96.2839 244.27 97.4539 243.67 98.0389 242.335V244H99.4339V233.05H97.6789V237.115C97.0789 236.125 96.0889 235.66 94.9039 235.66C92.5939 235.66 91.0339 237.505 91.0339 239.83V240.115C91.0339 242.455 92.6689 244.27 94.9639 244.27ZM95.2939 242.755C93.8389 242.755 92.7889 241.675 92.7889 239.965C92.7889 238.285 93.7939 237.16 95.2789 237.16C96.5839 237.16 97.7389 238.045 97.7389 239.575V240.22C97.7389 241.795 96.6439 242.755 95.2939 242.755Z" fill="#770FDF"/>
<rect x="16" y="221" width="34" height="35" rx="4" fill="white"/>
<path d="M29.847 244V233.05H25.737V234.58H28.077V244H29.847ZM34.2397 244V239.335C34.2397 238.105 34.9897 237.265 36.1447 237.265C37.2097 237.265 37.9447 237.97 37.9447 239.14V244H39.6997V239.395C39.6997 236.995 38.7097 235.675 36.8197 235.675H36.7447C35.4847 235.675 34.6747 236.26 34.2397 237.31V233.05H32.4847V244H34.2397Z" fill="#A0A0A0"/>
<rect x="135" y="221" width="38" height="35" rx="4" fill="white"/>
<path d="M149.126 244V233.05H145.016V234.58H147.356V244H149.126ZM155.679 244L156.984 237.73L158.484 244H161.079L163.059 235.915H161.454L159.894 242.575H159.594L158.079 236.185H155.904L154.614 242.575H154.299L152.529 235.915H150.819L153.069 244H155.679Z" fill="#A0A0A0"/>
<rect x="199" y="221" width="39" height="35" rx="4" fill="white"/>
<path d="M212.879 244V233.05H208.769V234.58H211.109V244H212.879ZM217.271 244V239.215C217.271 238.015 217.976 237.265 219.056 237.265C220.091 237.265 220.706 237.97 220.706 239.14V244H222.476V239.215C222.476 238.015 223.166 237.265 224.246 237.265C225.296 237.265 225.911 237.97 225.911 239.14V244H227.666V239.395C227.666 237.01 226.706 235.675 224.831 235.675H224.756C223.436 235.675 222.566 236.35 222.176 237.58C221.786 236.35 220.931 235.675 219.611 235.675H219.536C218.126 235.675 217.256 236.44 216.911 237.835V235.915H215.516V244H217.271Z" fill="#A0A0A0"/>
<rect x="264" y="221" width="33" height="35" rx="4" fill="white"/>
<path d="M278.013 244V233.05H273.903V234.58H276.243V244H278.013ZM281.461 247.165C283.276 247.165 284.296 246.49 284.776 244.795L287.326 235.915H285.631L283.831 242.395H283.501L281.356 235.915H279.571L282.316 243.82H283.426L283.276 244.375C283.006 245.305 282.526 245.62 281.596 245.62H280.261V247.165H281.461Z" fill="#A0A0A0"/>
<rect x="322" y="221" width="38" height="35" rx="4" fill="white"/>
<path d="M333.323 244L334.388 240.91H339.353L340.448 244H342.308L338.348 233.05H335.363L331.523 244H333.323ZM334.928 239.35L336.563 234.595H337.103L338.798 239.35H334.928ZM345.395 244V233.05H342.56V234.4H343.625V244H345.395ZM349.534 244V233.05H346.699V234.4H347.764V244H349.534Z" fill="#A0A0A0"/>
<path d="M49.25 198.806V196.986C51.238 196.776 52.428 195.698 52.428 194.088C52.428 192.338 51.056 191.33 48.984 191.148L48.13 191.064C47.01 190.966 46.492 190.35 46.492 189.622C46.492 188.768 47.22 188.138 48.466 188.138C49.838 188.138 50.454 189.02 50.454 189.944H51.98C51.98 188.18 50.944 187.06 49.194 186.822V185.422H47.78V186.822C46.03 187.018 44.952 188.012 44.952 189.622C44.952 191.386 46.142 192.324 47.99 192.492L48.844 192.562C50.188 192.688 50.874 193.262 50.874 194.088C50.874 194.942 50.104 195.656 48.564 195.656C46.814 195.656 46.212 194.662 46.212 193.752H44.686C44.686 195.558 45.778 196.748 47.836 196.972V198.806H49.25ZM57.2348 197V186.78H53.3988V188.208H55.5828V197H57.2348ZM62.2447 197L66.2487 188.348V186.78H59.0947V189.804H60.4667V188.166H64.4707L64.5827 188.32L60.5087 197H62.2447ZM69.2162 197V195.026H67.3122V197H69.2162ZM74.7689 197.28C77.1769 197.28 78.5349 195.81 78.5349 193.752C78.5349 191.75 77.3029 190.336 75.1329 190.336C73.8449 190.336 72.8229 190.84 72.2909 191.848C72.2909 189.468 73.0889 188.096 75.5389 188.096C76.2809 188.096 76.8269 188.152 77.4429 188.208V186.808C76.8269 186.738 76.3229 186.696 75.6089 186.696C72.4589 186.696 70.7649 188.488 70.7649 191.764V192.408C70.7649 195.04 71.7729 197.28 74.7689 197.28ZM74.7549 195.866C73.2289 195.866 72.5149 194.928 72.5149 193.78C72.5149 192.394 73.5229 191.666 74.8389 191.666C76.1969 191.666 76.9389 192.52 76.9389 193.766C76.9389 195.012 76.1829 195.866 74.7549 195.866ZM83.8405 197.28C86.2485 197.28 87.6065 195.81 87.6065 193.752C87.6065 191.75 86.3745 190.336 84.2045 190.336C82.9165 190.336 81.8945 190.84 81.3625 191.848C81.3625 189.468 82.1605 188.096 84.6105 188.096C85.3525 188.096 85.8985 188.152 86.5145 188.208V186.808C85.8985 186.738 85.3945 186.696 84.6805 186.696C81.5305 186.696 79.8365 188.488 79.8365 191.764V192.408C79.8365 195.04 80.8445 197.28 83.8405 197.28ZM83.8265 195.866C82.3005 195.866 81.5865 194.928 81.5865 193.78C81.5865 192.394 82.5945 191.666 83.9105 191.666C85.2685 191.666 86.0105 192.52 86.0105 193.766C86.0105 195.012 85.2545 195.866 83.8265 195.866Z" fill="#A0A0A0"/>
<path d="M214.25 15.806V13.986C216.238 13.776 217.428 12.698 217.428 11.088C217.428 9.338 216.056 8.33 213.984 8.148L213.13 8.064C212.01 7.966 211.492 7.35 211.492 6.622C211.492 5.768 212.22 5.138 213.466 5.138C214.838 5.138 215.454 6.02 215.454 6.944H216.98C216.98 5.18 215.944 4.06 214.194 3.822V2.422H212.78V3.822C211.03 4.018 209.952 5.012 209.952 6.622C209.952 8.386 211.142 9.324 212.99 9.492L213.844 9.562C215.188 9.688 215.874 10.262 215.874 11.088C215.874 11.942 215.104 12.656 213.564 12.656C211.814 12.656 211.212 11.662 211.212 10.752H209.686C209.686 12.558 210.778 13.748 212.836 13.972V15.806H214.25ZM222.235 14V3.78H218.399V5.208H220.583V14H222.235ZM227.917 3.486C225.509 3.486 224.151 4.956 224.151 7.028C224.151 9.03 225.383 10.444 227.567 10.444C228.855 10.444 229.863 9.94 230.395 8.918C230.395 11.312 229.611 12.67 227.147 12.67C226.405 12.67 225.873 12.628 225.257 12.558V13.972C225.859 14.042 226.377 14.084 227.091 14.084C230.241 14.084 231.921 12.292 231.921 9.016V8.372C231.921 5.74 230.927 3.486 227.917 3.486ZM227.945 4.914C229.471 4.914 230.185 5.852 230.185 7C230.185 8.372 229.177 9.114 227.861 9.114C226.489 9.114 225.747 8.26 225.747 7.014C225.747 5.768 226.503 4.914 227.945 4.914ZM235.378 14V12.026H233.474V14H235.378ZM241.253 14.252C244.375 14.252 245.565 11.956 245.565 9.268V8.498C245.565 5.698 244.235 3.486 241.253 3.486C238.271 3.486 236.941 5.698 236.941 8.498V9.268C236.941 11.956 238.131 14.252 241.253 14.252ZM241.253 12.726C239.447 12.726 238.621 11.55 238.621 8.876C238.621 6.132 239.475 5.012 241.253 5.012C243.017 5.012 243.885 6.132 243.885 8.904C243.885 11.55 243.045 12.726 241.253 12.726ZM254.203 14V12.572H248.855V12.068C248.855 11.48 249.079 11.186 249.835 10.85L251.669 10.024C253.209 9.324 254.105 8.372 254.105 6.86V6.664C254.105 4.956 252.957 3.486 250.605 3.486C248.239 3.486 247.091 4.97 247.091 6.79H248.715C248.715 5.614 249.415 4.914 250.605 4.914C251.809 4.914 252.495 5.614 252.495 6.762C252.495 7.742 251.963 8.344 251.067 8.75L249.247 9.576C247.721 10.262 247.217 10.934 247.217 12.18V14H254.203Z" fill="#A0A0A0"/>
</svg>
