<svg width="14" height="14" viewBox="0 0 14 14" fill="none" xmlns="http://www.w3.org/2000/svg">
<g clip-path="url(#clip0_0_749)">
<path d="M6.99984 12.8337C3.77809 12.8337 1.1665 10.2221 1.1665 7.00033C1.1665 3.77858 3.77809 1.16699 6.99984 1.16699C10.2216 1.16699 12.8332 3.77858 12.8332 7.00033C12.8332 10.2221 10.2216 12.8337 6.99984 12.8337ZM6.99984 11.667C8.23751 11.667 9.4245 11.1753 10.2997 10.3002C11.1748 9.42499 11.6665 8.238 11.6665 7.00033C11.6665 5.76265 11.1748 4.57566 10.2997 3.70049C9.4245 2.82532 8.23751 2.33366 6.99984 2.33366C5.76216 2.33366 4.57518 2.82532 3.70001 3.70049C2.82484 4.57566 2.33317 5.76265 2.33317 7.00033C2.33317 8.238 2.82484 9.42499 3.70001 10.3002C4.57518 11.1753 5.76216 11.667 6.99984 11.667ZM6.4165 4.08366H7.58317V5.25033H6.4165V4.08366ZM6.4165 6.41699H7.58317V9.91699H6.4165V6.41699Z" fill="#A0A0A0"/>
</g>
<defs>
<clipPath id="clip0_0_749">
<rect width="14" height="14" fill="white"/>
</clipPath>
</defs>
</svg>
